# xmcd
#
# Track frame offsets:
#	150
#	19265
#	31902
#	50337
#	71217
#	86372
#	96917
#	118407
#	136970
#	154257
#	166652
#	187395
#	203947
#
# Disc length: 2979 seconds
#
# Revision: 1
# Processed by: cddbd v1.4PL0 Copyright (c) Steve Scherf et al.
# Submitted via: audiograbber 1.80
#
DISCID=b90ba10d
DTITLE=Hootie and The Blowfish - Musical Chairs
DYEAR=1900
DGENRE=
TTITLE0=I will wait
TTITLE1=Wishing
TTITLE2=Las Vegas nights
TTITLE3=Only lonely
TTITLE4=Answer man
TTITLE5=Michelle post
TTITLE6=Bluesy revolution
TTITLE7=Home again
TTITLE8=One by one
TTITLE9=Desert mountain showdows
TTITLE10=What's going on here
TTITLE11=What do you want from me now
TTITLE12=Closet full of fear
EXTD=
EXTT0=
EXTT1=
EXTT2=
EXTT3=
EXTT4=
EXTT5=
EXTT6=
EXTT7=
EXTT8=
EXTT9=
EXTT10=
EXTT11=
EXTT12=
PLAYORDER=
